
<svg width="206px" height="206px" viewBox="0 0 206 206" version="1.1" xmlns="http://www.w3.org/2000/svg" xmlns:xlink="http://www.w3.org/1999/xlink">
    <g id="Page-1" stroke="none" stroke-width="1" fill="none" fill-rule="evenodd">
        <circle id="Oval" fill="#EEBF6B" cx="103" cy="103" r="103"></circle>
        <path d="" id="Path" stroke="#979797"></path>
        <path d="" id="Path-2" stroke="#979797"></path>
        <path d="M104.012465,25 C90.4895562,36.9338484 81.3118014,46.8281764 76.4792005,54.682984 C71.6465995,62.5377916 67.9247371,73.6102293 65.3136133,87.9002971 C64.1022023,102.222215 66.4003283,114.268036 72.2079912,124.037761 C78.015654,133.807486 88.6171453,143.461565 104.012465,153 C116.401554,143.639377 124.772132,133.985297 129.1242,124.037761 C133.476267,114.090224 134.914891,101.323376 133.440071,85.7372145 C132.870683,73.2432296 130.597369,62.8918195 126.620131,54.682984 C122.642892,46.4741486 115.107004,36.5798206 104.012465,25 Z" id="Path-3" stroke="#2C5C43" stroke-width="3" fill="#51944B"></path>
        <path d="M103.657429,153.231459 C103.143875,159.745746 103.143875,164.461436 103.657429,167.37853 C104.170984,170.295623 105.531904,173.310229 107.740189,176.422349" id="Path-4" stroke="#2C5C43" stroke-width="3" stroke-linecap="round"></path>
        <path d="" id="Path-5" stroke="#979797"></path>
        <path d="" id="Path-6" stroke="#979797"></path>
        <path d="M104.191092,152.736134 C95.4367809,125.042693 91.1970406,90.7706131 101.409283,62.8132346" id="Path-7" stroke="#2C5C43" stroke-width="3" stroke-linecap="round"></path>
        <path d="M99.8869397,137.906363 C85.1165259,131.939492 82.431603,124.608545 74.8885934,110.245223" id="Path-8" stroke="#2C5C43" stroke-width="3" stroke-linecap="round"></path>
        <path d="M97.1953735,120.196694 C81.9062493,114.012267 75.8343673,103.684393 73.0745981,88.1136956" id="Path-9" stroke="#2C5C43" stroke-width="3" stroke-linecap="round"></path>
        <path d="M94.8896246,100.088419 C81.4015777,93.6556198 76.4390754,85.3145448 71.9302247,71.3496062" id="Path-10" stroke="#2C5C43" stroke-width="3" stroke-linecap="round"></path>
        <path d="M95.9764524,83.8396244 C86.2783986,71.9298059 91.1422616,79.2326153 82.9305957,60.9770058" id="Path-11" stroke="#2C5C43" stroke-width="3" stroke-linecap="round"></path>
        <path d="M97.0658958,83.2602445 C110.494627,83.0257195 111.841601,78.8191259 122.226416,68.1806728" id="Path-12" stroke="#2C5C43" stroke-width="3" stroke-linecap="round"></path>
        <path d="M95.1760449,100.159043 C110.218216,100.159043 110.219763,97.6119207 122.506297,85.741246" id="Path-13" stroke="#2C5C43" stroke-width="3" stroke-linecap="round"></path>
        <path d="M96.884104,120.165306 C110.188944,120.165306 115.456245,115.841096 124.462849,105.729199" id="Path-14" stroke="#2C5C43" stroke-width="3" stroke-linecap="round"></path>
        <path d="M100.620647,137.869743 C113.230865,129.493124 106.223269,135.06707 120.209703,119.489144" id="Path-15" stroke="#2C5C43" stroke-width="3" stroke-linecap="round"></path>
    </g>
</svg>