
<svg width="206px" height="206px" viewBox="0 0 206 206" version="1.1" xmlns="http://www.w3.org/2000/svg" xmlns:xlink="http://www.w3.org/1999/xlink">
    <g id="Page-1" stroke="none" stroke-width="1" fill="none" fill-rule="evenodd">
        <circle id="Oval" fill="#EEBF6B" cx="103" cy="103" r="103"></circle>
        <polygon id="Path-16" fill="#000000" points="104.995966 47 35 77.056357 104.995966 102 172 77.056357"></polygon>
        <path d="M64,93 L104.435262,106.862485 L146,93 L146,121.97677 C142.946761,126.299384 140.411291,129.240664 138.39359,130.800611 C136.37589,132.360558 133.076911,133.930071 128.496655,135.509151 C118.129218,137.836384 110.297,139 105,139 C99.7030001,139 92.8324048,137.836384 84.3882141,135.509151 C78.8690037,133.555136 74.9570984,131.985623 72.6524981,130.800611 C70.3478978,129.6156 67.4637317,127.690614 64,125.025654 L64,93 Z" id="Path-17" fill="#000000"></path>
        <polygon id="Path-18" fill="#000000" points="58 85.9195276 55.3720248 122 43 122 43 114.038282 50.4675483 83 56.4811383 85.0780917"></polygon>
    </g>
</svg>