
<svg width="206px" height="206px" viewBox="0 0 206 206" version="1.1" xmlns="http://www.w3.org/2000/svg" xmlns:xlink="http://www.w3.org/1999/xlink">
    <g id="Page-1" stroke="none" stroke-width="1" fill="none" fill-rule="evenodd">
        <circle id="Oval" fill="#EEBF6B" cx="103" cy="103" r="103"></circle>
        <path d="M105,145 C79.5949015,145 59,124.628956 59,99.5 C59,74.3710439 79.5949015,54 105,54 C130.405098,54 151,74.3710439 151,99.5 C151,124.628956 130.405098,145 105,145 Z M105.5,124 C119.030976,124 130,113.030976 130,99.5 C130,85.9690236 119.030976,75 105.5,75 C91.9690236,75 81,85.9690236 81,99.5 C81,113.030976 91.9690236,124 105.5,124 Z" id="Combined-Shape" stroke="#000000" fill="#000000"></path>
        <path d="" id="Path-19" stroke="#979797"></path>
        <path d="M105.883881,53.9162691 L111.405613,39.4831433 L128.883881,44.4723156 L126.937366,59.4831433 L105.883881,53.9162691 Z M138.883881,67.7880431 L150.982903,61.4831433 L160.883881,77.4781239 L149.017721,86.4831433 L138.883881,67.7880431 Z M151.108112,100.483143 L164.883881,106.292378 L159.726431,124.483143 L144.883881,122.174833 L151.108112,100.483143 Z M136.169558,132.483143 L142.883881,146.795037 L126.649578,156.483143 L116.477829,143.039516 L136.169558,132.483143 Z M103.883881,144.50349 L97.7448926,160.483143 L79.8838812,154.939258 L82.7675906,138.483143 L103.883881,144.50349 Z M72.8838812,131.580896 L57.3054658,138.483143 L47.8838812,123.167883 L61.0505503,112.483143 L72.8838812,131.580896 Z M59.2906661,99.4831433 L43.8838812,93.1842436 L48.9184132,74.4831433 L64.8838812,77.2643907 L59.2906661,99.4831433 Z M72.7339761,66.4831433 L65.8838812,52.7581999 L82.4323387,43.4831433 L91.8838812,55.5081499 L72.7339761,66.4831433 Z" id="Combined-Shape" stroke="#000000" fill="#000000" stroke-linecap="round"></path>
        <path d="" id="Path-28" stroke="#979797"></path>
    </g>
</svg>